<?xml version="1.0" standalone="no"?>
<!DOCTYPE svg PUBLIC "-//W3C//DTD SVG 20010904//EN"
 "http://www.w3.org/TR/2001/REC-SVG-20010904/DTD/svg10.dtd">
<svg version="1.0" xmlns="http://www.w3.org/2000/svg"
 width="225.000000pt" height="225.000000pt" viewBox="0 0 225.000000 225.000000"
 preserveAspectRatio="xMidYMid meet">
<metadata>
Created by potrace 1.10, written by Peter Selinger 2001-2011
</metadata>
<g transform="translate(0.000000,225.000000) scale(0.100000,-0.100000)"
fill="#000000" stroke="none">
<path d="M1390 2003 c-14 -3 -57 -20 -96 -38 -84 -41 -153 -109 -179 -180 -23
-62 -21 -60 -40 -45 -19 16 -19 6 1 -25 9 -13 13 -28 10 -34 -3 -5 1 -12 10
-15 13 -5 15 -16 11 -49 -3 -23 -3 -34 0 -24 2 9 9 17 15 17 11 0 7 -29 -8
-65 -7 -17 -6 -18 8 -7 25 20 28 -15 6 -60 -21 -44 -24 -72 -4 -45 36 47 39 0
4 -58 -10 -16 -18 -39 -17 -50 0 -19 1 -18 11 3 6 12 14 22 18 22 11 0 19 -50
9 -56 -14 -8 -49 -81 -49 -101 1 -17 1 -17 12 1 29 50 61 71 70 44 3 -8 15 -5
36 11 43 30 84 43 162 50 l65 6 -2 190 c-4 270 -14 515 -22 514 -3 -1 -17 -4
-31 -6z m1 -45 c10 2 16 -3 16 -10 -1 -7 2 -49 6 -93 4 -44 10 -169 13 -279 2
-109 5 -201 6 -205 5 -41 -2 -48 -59 -55 -63 -7 -173 -45 -173 -60 0 -5 -9 -1
-20 9 -15 13 -17 21 -9 31 8 10 7 21 -4 43 -12 24 -12 32 -3 41 16 13 12 86
-4 82 -7 -1 -4 10 6 27 10 17 22 27 28 23 6 -3 -1 8 -16 26 -16 19 -30 51 -34
78 -3 25 -12 51 -18 57 -17 19 -18 35 -1 66 8 16 12 31 10 35 -3 3 -2 4 2 1 9
-7 32 27 33 48 0 10 4 16 9 13 5 -3 11 1 14 9 4 10 1 12 -11 9 -9 -3 3 5 28
18 25 13 45 29 45 36 0 17 95 63 109 54 6 -3 18 -5 27 -4z"/>
<path d="M710 1872 l0 -88 -105 4 -105 4 0 -356 c0 -196 2 -356 4 -356 2 0 23
7 46 15 23 8 53 15 66 15 13 0 24 4 24 8 0 4 -26 7 -58 7 -57 -2 -58 -1 -55
24 2 14 5 157 6 316 l2 290 70 1 c43 1 73 -3 77 -10 4 -6 5 -40 3 -76 -11
-154 -15 -410 -7 -410 5 0 12 114 15 253 7 235 8 253 27 269 13 10 20 29 20
50 0 18 3 43 6 56 6 20 11 22 38 16 17 -3 34 -11 37 -17 4 -5 12 -6 18 -3 6 4
11 0 11 -9 0 -9 4 -14 9 -10 5 3 12 1 16 -5 4 -6 10 -8 15 -5 5 3 23 -8 41
-24 18 -17 37 -27 42 -24 5 3 4 -4 -2 -15 -9 -17 -8 -19 9 -15 14 4 20 -1 24
-18 23 -116 27 -149 21 -160 -5 -6 -10 -26 -12 -43 -2 -17 -8 -33 -13 -34 -6
-2 -7 -8 -4 -13 3 -6 1 -15 -4 -22 -6 -7 -10 -16 -11 -22 0 -21 -44 -104 -52
-99 -5 3 -6 -2 -3 -10 3 -9 1 -16 -5 -16 -7 0 -9 -9 -5 -24 5 -20 0 -27 -23
-40 -15 -8 -22 -15 -15 -16 6 0 12 -5 12 -11 0 -5 -6 -7 -12 -3 -8 5 -7 0 2
-11 14 -17 15 -17 24 8 6 15 15 27 20 27 17 0 69 -37 87 -62 10 -12 21 -20 24
-16 9 9 -39 82 -70 107 -21 16 -26 26 -21 46 9 34 26 31 66 -10 18 -19 35 -33
38 -31 6 7 -18 49 -45 77 -21 23 -22 29 -12 53 15 33 22 33 54 -1 30 -33 35
-11 5 27 -30 38 -24 94 7 69 17 -15 17 -5 -2 32 -16 29 -12 55 6 44 13 -8 11
0 -6 42 -17 41 -19 57 -5 48 14 -8 13 -3 -8 44 -17 37 -56 85 -96 118 -27 22
-130 71 -183 87 l-53 15 0 -87z"/>
<path d="M1537 1843 c-104 -4 -110 -23 -7 -23 50 0 69 -4 73 -14 8 -20 9 -580
2 -609 -5 -19 -12 -23 -33 -20 -26 4 -26 4 -8 -11 11 -9 28 -16 38 -16 10 0
18 -4 18 -10 0 -5 5 -10 10 -10 6 0 10 127 10 360 0 198 -3 359 -7 358 -5 -1
-48 -4 -96 -5z"/>
<path d="M707 1224 c3 -9 8 -12 12 -5 7 10 24 9 98 -3 42 -8 83 -34 83 -54 0
-5 7 -13 16 -16 10 -4 13 -2 8 7 -4 6 2 3 13 -8 11 -11 18 -24 15 -29 -3 -5 0
-6 5 -3 13 8 27 -9 41 -50 7 -20 7 -33 1 -33 -5 0 -9 7 -9 16 0 10 -6 14 -15
10 -8 -3 -20 1 -27 8 -7 7 -27 16 -43 20 -26 6 -24 3 13 -19 24 -14 49 -22 55
-18 5 3 7 1 3 -5 -3 -5 6 -19 21 -30 24 -18 26 -23 14 -34 -12 -11 -13 -11 -6
1 6 11 3 13 -13 9 -12 -4 -22 -2 -22 3 0 5 -5 9 -11 9 -6 0 -17 7 -25 15 -9 8
-23 14 -32 14 -15 -1 -15 -2 1 -6 27 -7 20 -21 -8 -15 -14 2 -22 8 -19 13 3 5
-2 9 -11 9 -9 0 -14 -4 -11 -9 4 -5 -3 -7 -15 -4 -13 4 -18 11 -14 21 4 12 0
11 -16 -4 -12 -10 -19 -14 -15 -7 7 13 -29 12 -69 -2 -17 -6 -18 -5 -5 5 13
10 12 11 -3 6 -10 -3 -25 -6 -33 -6 -9 0 -13 -4 -10 -9 4 -5 0 -8 -6 -7 -27 4
-40 19 -35 42 2 13 0 24 -5 24 -5 0 -6 5 -2 11 4 7 1 10 -7 7 -9 -3 -15 -25
-17 -66 -2 -34 0 -62 4 -62 3 0 34 7 68 16 83 22 203 15 273 -15 43 -19 54
-29 64 -60 16 -49 61 -119 67 -103 2 7 -1 18 -7 25 -18 23 -41 129 -41 194 0
58 -3 66 -36 103 -63 70 -154 110 -251 110 -35 0 -41 -3 -36 -16z"/>
<path d="M1162 1183 c-45 -66 -64 -124 -57 -175 l7 -50 27 25 c51 49 116 70
221 70 67 0 108 -6 138 -18 24 -10 44 -16 45 -14 2 2 1 35 -1 73 l-4 69 -81
-6 c-45 -3 -93 -10 -107 -16 l-25 -12 25 6 c14 3 55 8 91 12 62 5 67 4 74 -16
3 -11 4 -29 1 -39 -5 -16 -19 -18 -119 -18 -110 0 -176 -6 -197 -19 -5 -3 -7
0 -4 8 5 14 71 47 92 47 7 0 12 5 12 10 0 13 -3 13 -37 -2 -46 -20 -114 -69
-108 -78 3 -4 -4 -6 -15 -3 -12 3 -20 0 -20 -8 0 -7 -3 -10 -6 -7 -7 8 15 51
32 61 7 4 11 14 8 22 -4 8 -1 15 6 15 7 0 9 8 5 20 -8 25 3 26 22 3 13 -16 13
-15 3 6 -7 13 -8 26 -4 30 13 9 16 31 5 31 -5 0 -18 -12 -29 -27z"/>
<path d="M771 1106 c30 -7 64 -16 75 -20 17 -6 17 -6 4 8 -10 10 -40 18 -75
20 l-60 5 56 -13z"/>
<path d="M742 685 c5 -42 -3 -58 -17 -35 -13 20 -63 11 -84 -16 -42 -53 -12
-144 48 -144 15 0 32 5 39 12 9 9 12 9 12 0 0 -7 10 -12 23 -12 22 0 22 2 20
112 -1 62 -2 116 -3 121 0 4 -10 7 -21 7 -20 0 -21 -4 -17 -45z m-14 -67 c20
-20 15 -76 -9 -88 -43 -24 -80 48 -43 84 19 19 36 20 52 4z"/>
<path d="M1030 610 c0 -113 1 -120 20 -120 19 0 20 7 20 120 0 113 -1 120 -20
120 -19 0 -20 -7 -20 -120z"/>
<path d="M431 600 l-2 -110 81 0 c73 0 80 2 80 20 0 18 -7 20 -54 20 -45 0
-55 3 -59 19 -7 27 0 31 50 31 36 0 43 3 43 20 0 17 -7 20 -45 20 -41 0 -45 2
-45 25 0 24 3 25 55 25 48 0 55 2 55 20 0 18 -7 20 -79 20 l-79 0 -1 -110z"/>
<path d="M830 592 c0 -54 4 -72 18 -85 22 -20 68 -22 76 -4 5 10 7 10 12 0 3
-7 14 -13 25 -13 17 0 19 8 19 85 0 78 -2 85 -20 85 -17 0 -20 -7 -20 -53 0
-60 -17 -92 -43 -81 -21 8 -30 41 -25 94 3 36 1 40 -19 40 -22 0 -23 -4 -23
-68z"/>
<path d="M1152 653 c-7 -3 -19 -18 -28 -35 -20 -39 -11 -92 19 -113 26 -18 77
-20 101 -2 16 12 16 15 3 26 -10 8 -17 9 -22 1 -14 -22 -75 -5 -75 22 0 4 27
8 60 8 60 0 60 0 60 30 0 54 -61 86 -118 63z m62 -29 c33 -13 17 -34 -24 -34
-41 0 -49 7 -28 28 13 13 28 15 52 6z"/>
<path d="M1321 651 c-8 -5 -11 -16 -8 -24 5 -13 11 -14 36 -4 23 8 33 8 45 -2
22 -19 11 -31 -29 -29 -19 1 -41 -5 -50 -12 -20 -17 -19 -53 3 -73 22 -20 68
-22 76 -4 5 10 7 10 12 0 3 -7 13 -13 23 -13 14 0 16 9 13 73 -2 39 -9 78 -14
85 -12 14 -86 16 -107 3z m82 -87 c11 -12 -13 -44 -34 -44 -24 0 -37 29 -18
41 16 10 43 12 52 3z"/>
<path d="M1490 575 c0 -84 0 -85 25 -85 18 0 23 4 19 15 -12 29 6 104 25 110
20 6 36 45 18 45 -6 0 -19 -7 -29 -17 -17 -15 -18 -15 -18 0 0 10 -8 17 -20
17 -18 0 -20 -7 -20 -85z"/>
<path d="M1620 575 c0 -78 2 -85 20 -85 18 0 20 7 20 58 0 60 11 82 42 82 22
0 31 -34 26 -95 -3 -41 -1 -45 19 -45 21 0 23 4 23 63 0 74 -18 107 -59 107
-15 0 -32 -5 -39 -12 -9 -9 -12 -9 -12 0 0 7 -9 12 -20 12 -18 0 -20 -7 -20
-85z"/>
</g>
</svg>
